<svg id="visual" viewBox="0 0 900 600" width="900" height="600" xmlns="http://www.w3.org/2000/svg" xmlns:xlink="http://www.w3.org/1999/xlink" version="1.1"><g stroke-width="1" stroke-linejoin="bevel"><path d="M463 315L478 217L439 210Z" fill="#19435d" stroke="#19435d"></path><path d="M439 210L361 275L463 315Z" fill="#081a28" stroke="#081a28"></path><path d="M599 311L576 206L478 217Z" fill="#297ea6" stroke="#297ea6"></path><path d="M478 217L481 98L439 210Z" fill="#112e42" stroke="#112e42"></path><path d="M463 315L599 311L478 217Z" fill="#15384f" stroke="#15384f"></path><path d="M569 112L481 98L478 217Z" fill="#1d4e6b" stroke="#1d4e6b"></path><path d="M439 210L299 167L361 275Z" fill="#297ea6" stroke="#297ea6"></path><path d="M370 73L299 167L439 210Z" fill="#246688" stroke="#246688"></path><path d="M299 167L271 263L361 275Z" fill="#205a7a" stroke="#205a7a"></path><path d="M361 275L385 436L463 315Z" fill="#277297" stroke="#277297"></path><path d="M314 417L385 436L361 275Z" fill="#00101c" stroke="#00101c"></path><path d="M463 315L566 418L599 311Z" fill="#081a28" stroke="#081a28"></path><path d="M385 436L527 437L463 315Z" fill="#081a28" stroke="#081a28"></path><path d="M694 230L569 112L576 206Z" fill="#00101c" stroke="#00101c"></path><path d="M576 206L569 112L478 217Z" fill="#081a28" stroke="#081a28"></path><path d="M527 437L566 418L463 315Z" fill="#277297" stroke="#277297"></path><path d="M271 263L314 417L361 275Z" fill="#112e42" stroke="#112e42"></path><path d="M416 0L370 73L481 98Z" fill="#081a28" stroke="#081a28"></path><path d="M481 98L370 73L439 210Z" fill="#1d4e6b" stroke="#1d4e6b"></path><path d="M191 197L232 294L271 263Z" fill="#081a28" stroke="#081a28"></path><path d="M271 263L232 294L314 417Z" fill="#081a28" stroke="#081a28"></path><path d="M385 436L477 503L527 437Z" fill="#19435d" stroke="#19435d"></path><path d="M527 437L598 480L566 418Z" fill="#00101c" stroke="#00101c"></path><path d="M374 493L477 503L385 436Z" fill="#1d4e6b" stroke="#1d4e6b"></path><path d="M314 417L374 493L385 436Z" fill="#246688" stroke="#246688"></path><path d="M668 373L599 311L566 418Z" fill="#112e42" stroke="#112e42"></path><path d="M668 373L683 330L599 311Z" fill="#00101c" stroke="#00101c"></path><path d="M599 311L694 230L576 206Z" fill="#277297" stroke="#277297"></path><path d="M598 480L668 373L566 418Z" fill="#246688" stroke="#246688"></path><path d="M683 330L694 230L599 311Z" fill="#15384f" stroke="#15384f"></path><path d="M370 73L279 68L299 167Z" fill="#00101c" stroke="#00101c"></path><path d="M299 167L191 197L271 263Z" fill="#112e42" stroke="#112e42"></path><path d="M123 226L209 363L232 294Z" fill="#205a7a" stroke="#205a7a"></path><path d="M232 294L209 363L314 417Z" fill="#205a7a" stroke="#205a7a"></path><path d="M314 417L330 520L374 493Z" fill="#297ea6" stroke="#297ea6"></path><path d="M477 503L598 480L527 437Z" fill="#205a7a" stroke="#205a7a"></path><path d="M578 0L481 98L569 112Z" fill="#205a7a" stroke="#205a7a"></path><path d="M578 0L473 0L481 98Z" fill="#081a28" stroke="#081a28"></path><path d="M370 73L320 0L279 68Z" fill="#246688" stroke="#246688"></path><path d="M473 0L416 0L481 98Z" fill="#205a7a" stroke="#205a7a"></path><path d="M236 85L191 197L299 167Z" fill="#0c2435" stroke="#0c2435"></path><path d="M170 0L236 85L279 68Z" fill="#0c2435" stroke="#0c2435"></path><path d="M279 68L236 85L299 167Z" fill="#246688" stroke="#246688"></path><path d="M215 526L330 520L314 417Z" fill="#00101c" stroke="#00101c"></path><path d="M362 600L493 600L477 503Z" fill="#081a28" stroke="#081a28"></path><path d="M707 66L578 0L569 112Z" fill="#19435d" stroke="#19435d"></path><path d="M416 0L320 0L370 73Z" fill="#0c2435" stroke="#0c2435"></path><path d="M694 230L707 66L569 112Z" fill="#246688" stroke="#246688"></path><path d="M107 133L123 226L191 197Z" fill="#297ea6" stroke="#297ea6"></path><path d="M191 197L123 226L232 294Z" fill="#081a28" stroke="#081a28"></path><path d="M661 600L693 489L598 480Z" fill="#112e42" stroke="#112e42"></path><path d="M598 480L693 489L668 373Z" fill="#1d4e6b" stroke="#1d4e6b"></path><path d="M789 398L799 313L683 330Z" fill="#0c2435" stroke="#0c2435"></path><path d="M683 330L799 313L694 230Z" fill="#15384f" stroke="#15384f"></path><path d="M694 230L808 108L707 66Z" fill="#246688" stroke="#246688"></path><path d="M586 600L598 480L477 503Z" fill="#277297" stroke="#277297"></path><path d="M362 600L477 503L374 493Z" fill="#112e42" stroke="#112e42"></path><path d="M338 600L362 600L330 520Z" fill="#297ea6" stroke="#297ea6"></path><path d="M330 520L362 600L374 493Z" fill="#112e42" stroke="#112e42"></path><path d="M209 363L215 526L314 417Z" fill="#00101c" stroke="#00101c"></path><path d="M133 495L215 526L209 363Z" fill="#15384f" stroke="#15384f"></path><path d="M789 398L683 330L668 373Z" fill="#246688" stroke="#246688"></path><path d="M222 600L338 600L330 520Z" fill="#297ea6" stroke="#297ea6"></path><path d="M493 600L586 600L477 503Z" fill="#1d4e6b" stroke="#1d4e6b"></path><path d="M764 476L668 373L693 489Z" fill="#0c2435" stroke="#0c2435"></path><path d="M764 476L789 398L668 373Z" fill="#081a28" stroke="#081a28"></path><path d="M236 85L107 133L191 197Z" fill="#205a7a" stroke="#205a7a"></path><path d="M170 0L107 133L236 85Z" fill="#246688" stroke="#246688"></path><path d="M769 0L709 0L707 66Z" fill="#15384f" stroke="#15384f"></path><path d="M707 66L709 0L578 0Z" fill="#277297" stroke="#277297"></path><path d="M64 305L209 363L123 226Z" fill="#00101c" stroke="#00101c"></path><path d="M64 305L98 396L209 363Z" fill="#15384f" stroke="#15384f"></path><path d="M776 600L764 476L693 489Z" fill="#297ea6" stroke="#297ea6"></path><path d="M320 0L170 0L279 68Z" fill="#246688" stroke="#246688"></path><path d="M0 197L64 305L123 226Z" fill="#112e42" stroke="#112e42"></path><path d="M833 187L808 108L694 230Z" fill="#246688" stroke="#246688"></path><path d="M900 297L833 187L799 313Z" fill="#112e42" stroke="#112e42"></path><path d="M799 313L833 187L694 230Z" fill="#00101c" stroke="#00101c"></path><path d="M0 534L133 495L98 396Z" fill="#15384f" stroke="#15384f"></path><path d="M98 396L133 495L209 363Z" fill="#1d4e6b" stroke="#1d4e6b"></path><path d="M215 526L222 600L330 520Z" fill="#00101c" stroke="#00101c"></path><path d="M586 600L661 600L598 480Z" fill="#1d4e6b" stroke="#1d4e6b"></path><path d="M133 495L222 600L215 526Z" fill="#297ea6" stroke="#297ea6"></path><path d="M808 108L769 0L707 66Z" fill="#081a28" stroke="#081a28"></path><path d="M170 0L121 0L107 133Z" fill="#19435d" stroke="#19435d"></path><path d="M107 133L0 197L123 226Z" fill="#00101c" stroke="#00101c"></path><path d="M900 392L900 297L799 313Z" fill="#081a28" stroke="#081a28"></path><path d="M833 187L900 135L808 108Z" fill="#19435d" stroke="#19435d"></path><path d="M808 108L900 0L769 0Z" fill="#1d4e6b" stroke="#1d4e6b"></path><path d="M900 392L799 313L789 398Z" fill="#081a28" stroke="#081a28"></path><path d="M900 297L900 210L833 187Z" fill="#0c2435" stroke="#0c2435"></path><path d="M0 118L0 197L107 133Z" fill="#081a28" stroke="#081a28"></path><path d="M64 305L0 333L98 396Z" fill="#15384f" stroke="#15384f"></path><path d="M0 197L0 333L64 305Z" fill="#205a7a" stroke="#205a7a"></path><path d="M900 210L900 135L833 187Z" fill="#081a28" stroke="#081a28"></path><path d="M900 494L789 398L764 476Z" fill="#246688" stroke="#246688"></path><path d="M900 494L900 392L789 398Z" fill="#081a28" stroke="#081a28"></path><path d="M0 333L0 397L98 396Z" fill="#246688" stroke="#246688"></path><path d="M133 495L73 600L222 600Z" fill="#205a7a" stroke="#205a7a"></path><path d="M661 600L776 600L693 489Z" fill="#15384f" stroke="#15384f"></path><path d="M121 0L0 118L107 133Z" fill="#112e42" stroke="#112e42"></path><path d="M0 534L73 600L133 495Z" fill="#0c2435" stroke="#0c2435"></path><path d="M776 600L900 494L764 476Z" fill="#1d4e6b" stroke="#1d4e6b"></path><path d="M121 0L0 0L0 118Z" fill="#277297" stroke="#277297"></path><path d="M900 135L900 0L808 108Z" fill="#246688" stroke="#246688"></path><path d="M0 397L0 534L98 396Z" fill="#0c2435" stroke="#0c2435"></path><path d="M0 534L0 600L73 600Z" fill="#277297" stroke="#277297"></path><path d="M776 600L900 600L900 494Z" fill="#277297" stroke="#277297"></path></g></svg>